# xmcd CD database file
#
# Track frame offsets:
#	150
#	10660
#	22619
#	41688
#	54056
#	72107
#	86181
#	101016
#	115781
#	126448
#	138907
#	153919
#	171136
#
# Disc length: 2534 seconds
#
# Revision: 2
# Processed by: cddbd v1.5.2PL0 Copyright (c) Steve Scherf et al.
# Submitted via: CDex 1.79
#
DISCID=9909e40d
DTITLE=Ricky Dean Morgan - Country Country
DYEAR=2004
DGENRE=Country
TTITLE0=It`s Hard To Keep Your Head Above The Water
TTITLE1=Can`t Swim If You Ain`t In The Water
TTITLE2=My One And Only Love
TTITLE3=Money Talks
TTITLE4=Afraid
TTITLE5=Country Country
TTITLE6=Somethin`Sexy `Bout A Southern Drawl
TTITLE7=How Can I Believe In You
TTITLE8=I Don`t Take To Pain
TTITLE9=Muscle Car Man
TTITLE10=You Think You Know Someone
TTITLE11=You`ll Never Hear The End Of It
TTITLE12=Me And Jesus
EXTD=YEAR: 2004
EXTT0=
EXTT1=
EXTT2=
EXTT3=
EXTT4=
EXTT5=
EXTT6=
EXTT7=
EXTT8=
EXTT9=
EXTT10=
EXTT11=
EXTT12=
PLAYORDER=
